<svg xmlns="http://www.w3.org/2000/svg" xmlns:xlink="http://www.w3.org/1999/xlink" viewBox="0 0 327.13 215.27"><defs><style>.cls-1{fill:url(#Gold);}.cls-2{fill:url(#Gold-2);}.cls-3{fill:url(#Gold-3);}</style><linearGradient id="Gold" x1="456.78" y1="18.2" x2="-6.23" y2="97.32" gradientUnits="userSpaceOnUse"><stop offset="0.01" stop-color="#fbc926"/><stop offset="0.25" stop-color="#fffbcc"/><stop offset="0.3" stop-color="#f8f0bb"/><stop offset="0.41" stop-color="#e7d28e"/><stop offset="0.55" stop-color="#cca246"/><stop offset="0.6" stop-color="#c3922e"/><stop offset="0.87" stop-color="#eed688"/><stop offset="1" stop-color="#fffbcc"/></linearGradient><linearGradient id="Gold-2" x1="469.83" y1="94.55" x2="6.82" y2="173.68" xlink:href="#Gold"/><linearGradient id="Gold-3" x1="465.55" y1="69.48" x2="2.54" y2="148.61" xlink:href="#Gold"/></defs><g id="Layer_2" data-name="Layer 2"><g id="OBJECT"><path class="cls-1" d="M57,116.6c.41-1.85.8-3.72,1.24-5.56a34,34,0,0,1,5.23-12.37,7.76,7.76,0,0,1,4.6-3.2,9.27,9.27,0,0,1,9.73,3.67,18.06,18.06,0,0,1,2.91,8.64,147.94,147.94,0,0,1,.49,18.83c-.08,5.26-.32,10.52-.39,15.77a38,38,0,0,0,.71,8.77,5.67,5.67,0,0,0,1,2.59,5.7,5.7,0,0,0,1.1-2.53,127.11,127.11,0,0,0,4.07-21.09c.31-2.51.53-5,.85-7.53a8.66,8.66,0,0,0-.34-3.61,22,22,0,0,1,.28-14.09A13.61,13.61,0,0,1,90.63,101a9.79,9.79,0,0,1,12.76-2.06c.29.18.57.38.84.56a6.09,6.09,0,0,1,8.8,2.23,9.46,9.46,0,0,1,1.26,4.28,49.18,49.18,0,0,1-.2,7.77,47.3,47.3,0,0,0-.28,9.81,11.19,11.19,0,0,0,.86,3.4c.76,0,1.08-.6,1.48-1a21.55,21.55,0,0,0,2.53-3.47,6.71,6.71,0,0,0,.88-6.09c-1.65-5.45-.89-11,1-16.28a3.87,3.87,0,0,1,3.79-2.91,4.76,4.76,0,0,1,4.75,2.55c.21.4.21.94.69,1.2.57-.34.47-.95.58-1.46a107.63,107.63,0,0,1,2.9-10.88,26.08,26.08,0,0,1,2.24-5c2.1-3.46,5.34-4.19,8.73-1.93a11.32,11.32,0,0,1,3.7,4.3c1.8,3.43,2.21,7.16,2.34,10.92.23,6.49-.15,13-.5,19.46-.48,8.65-1.44,17.29-1,26a26.56,26.56,0,0,0,1.2,7.46,3.7,3.7,0,0,0,1.13,2,8.88,8.88,0,0,0,2.08-3.45,47.87,47.87,0,0,0,2.72-9.63A216.85,216.85,0,0,0,159.07,117a6,6,0,0,0-.14-2.23c-3.07-10.43-3.49-21.11-3-31.87.09-2,.14-4.1.3-6.14.07-.91-.13-1.39-1.08-1.59-4.79-1-8.9-3.38-12.88-6.07-3.68-2.49-7.06-5.38-10.57-8.09a66.76,66.76,0,0,0-7.62-5.18c-8.37-4.76-16.56-4.25-24.61.76A30.36,30.36,0,0,0,88.32,68.9c-.22.42-.44.85-.64,1.28-.32.73-.74,1.12-1.59.72s-.81-.92-.47-1.66a31.56,31.56,0,0,1,6.92-9.83,29.75,29.75,0,0,1,15.72-8.23,25.43,25.43,0,0,1,15.14,2.35A49.82,49.82,0,0,1,133,59.47c3.16,2.4,6.26,4.86,9.44,7.22a40.69,40.69,0,0,0,9.9,5.71,11,11,0,0,0,4.11,1c.3-2.58.59-5.14.91-7.7a128.25,128.25,0,0,1,6.93-29.43,57.79,57.79,0,0,1,6.45-12.77,19.66,19.66,0,0,1,3.66-4.12c3-2.51,6.13-2.66,9.41-.49a10.75,10.75,0,0,1,4.3,6.06,30.21,30.21,0,0,1,.71,12.79,58.39,58.39,0,0,1-8.44,24c-2.9,4.62-6.4,8.69-11.21,11.44a2.19,2.19,0,0,0-1.09,2q-.65,9.6-1.32,19.21c-.12,1.84-.22,3.68-.33,5.66.88-.3.89-1.07,1.11-1.61A40.64,40.64,0,0,1,176,85.52a29.85,29.85,0,0,1,2.48-2.15,5.52,5.52,0,0,1,2.4-1.08,3.5,3.5,0,0,1,4.47,3.47,9.81,9.81,0,0,1-1.26,4.9,47.9,47.9,0,0,1-5.32,7.77c-.59.74-1.2,1.47-1.86,2.29a9.14,9.14,0,0,0,1,.53,11.34,11.34,0,0,1,6.83,7.91,38.74,38.74,0,0,1,1.13,10.56c0,3.62-.2,7.24-.26,10.86a20.29,20.29,0,0,0,.62,5.63,3.13,3.13,0,0,0,1.32-1.86,54.85,54.85,0,0,0,3.36-12.21,39.36,39.36,0,0,0,.67-11.61c-.11-.94,0-1.62,1.07-1.85,1.29-.28,2.42.12,2.72,1.13a18.08,18.08,0,0,1,.55,5.28,65.9,65.9,0,0,1-3.24,20.14,24.55,24.55,0,0,1-1,2.67,7,7,0,0,1-9.93,3.47,10.55,10.55,0,0,1-4.37-4.21,30,30,0,0,1-3.69-11,84.17,84.17,0,0,1-.57-11.66c-.05-2.87-.13-5.73-.24-8.6a3.67,3.67,0,0,0-1.21-3.12c-.74-.58-.32-1.23.3-1.67,3.81-2.71,6.49-6.39,8.87-10.32A11.33,11.33,0,0,0,182.3,87a4.79,4.79,0,0,0,0-2c-.18-.71-.62-.9-1.2-.44a20.24,20.24,0,0,0-2.15,1.88,37.86,37.86,0,0,0-7.7,12.23,65.56,65.56,0,0,0-3.67,14.67c-.19,1.21-.38,2.43-.65,3.62-.53,2.33-1.19,2.76-3.62,2.47l-1.06-.12c-.28,2.36-.54,4.7-.84,7-.84,6.57-1.76,13.13-3.24,19.59a25.72,25.72,0,0,1-1.68,5,11.14,11.14,0,0,1-2.15,3.22,6.3,6.3,0,0,1-10.06-.8c-2.4-3.52-3.39-7.56-4.15-11.68a130.61,130.61,0,0,1-1.66-30c.31-6.56,1.09-13.07,1.81-19.58.19-1.77.35-3.54.46-5.31a9.66,9.66,0,0,0-.37-3.26c-1.13.11-1.6.91-2.11,1.59A17.85,17.85,0,0,0,136,89.46a63.23,63.23,0,0,0-3.67,18,117.17,117.17,0,0,0-.18,12.29,20.82,20.82,0,0,1-.1,3.06c-.23,2-1.28,3-3.37,3.1a6.34,6.34,0,0,1-4.4-1.34c-.43-.33-.84-.7-1.25-1-.69.12-.77.74-1,1.18a22.49,22.49,0,0,1-3.24,4.46,6.37,6.37,0,0,1-8.22,1,10.26,10.26,0,0,1-3.71-4.28,26.79,26.79,0,0,1-2.74-11.46c0-.88,0-1.77,0-2.87a2,2,0,0,0-.86,1.43,49.12,49.12,0,0,1-3.32,8.14c-1.44,2.7-3.52,4.08-6.68,3.54-1.26-.21-1.31-.13-1.4,1.21a179.4,179.4,0,0,1-2.12,17.9,79.89,79.89,0,0,1-2.16,9.79,7.48,7.48,0,0,1-4.21,5.23,6.16,6.16,0,0,1-7.6-1.68,19.84,19.84,0,0,1-3.16-5.24A56.4,56.4,0,0,1,68,133.29a161.68,161.68,0,0,1-.21-18,88.55,88.55,0,0,0-.18-12.08,10.93,10.93,0,0,0-.58-3c-.71-.13-1,.46-1.29.85a20.24,20.24,0,0,0-3.56,6.86,61.69,61.69,0,0,0-2.4,13.48c-.14,1.43-.27,2.86-.47,4.28s-.84,2.75-2.52,3.1a3.92,3.92,0,0,1-4.37-1.48c-.57-.82-1-1.73-1.54-2.59-.72.14-.6.75-.73,1.14-1.23,3.77-2.41,7.55-4,11.2a20.58,20.58,0,0,1-3.14,5.5,6.38,6.38,0,0,1-7.52,2.15,12.7,12.7,0,0,1-5.76-4.11,33.53,33.53,0,0,1-6.11-11.28,69.7,69.7,0,0,1-3.17-20.16c-.18-6.57.32-13.11.7-19.66.2-3.41.56-3-2.77-2.9-4.1,0-8.2.2-12.29.24-1.36,0-2.73-.16-4.09-.25a3.25,3.25,0,0,1-1.55-.46.77.77,0,0,1,.26-1.48,2.49,2.49,0,0,1,.61,0c6.15.33,12.29-.21,18.43-.15,1.66,0,1.73,0,1.78-1.5.36-9.15.48-18.3-.76-27.4-.33-2.43-.74-4.9-2.85-6.6a.89.89,0,0,1-.25-1.27c.33-.49.82-.4,1.29-.27a9.58,9.58,0,0,1,4.57,3,28.85,28.85,0,0,1,4.19,6.29,60.51,60.51,0,0,1,5.79,20.38c.22,1.9.36,3.81.48,5.72,0,.88.4,1.23,1.28,1.09s2-.25,3-.37a10.16,10.16,0,0,1,1.22-.15c.78,0,1.75.13,1.84.93s-.93.84-1.57.94c-1.34.22-2.7.37-4.06.53-1.53.18-1.54.18-1.56,1.76q-.11,7.58-.58,15.15c-.36,5.93-1.06,11.83-1.52,17.75a44.1,44.1,0,0,0,.6,13.66,17.91,17.91,0,0,0,2.46,6c1.45,2.15,2.35,2.22,4.14.28a19.47,19.47,0,0,0,3.24-5.2,147.17,147.17,0,0,0,6-16.55c.47-1.48,0-2.85-.4-4.21a151.36,151.36,0,0,1-3.15-15,160.38,160.38,0,0,1-1.74-29.21c.42-15.6,2-31.07,5.86-46.23A82.35,82.35,0,0,1,55.64,6.14,19.17,19.17,0,0,1,58.32,2c2.06-2.27,4.31-2.63,7-1.15A8.55,8.55,0,0,1,68.45,4,27.79,27.79,0,0,1,72,16.11c.81,8.22.07,16.38-1.05,24.51-2.73,19.79-7.5,39.13-13,58.3a11.92,11.92,0,0,1-.45,1.58c-2.3,5.26-1.37,10.71-1,16.12ZM55.86,92.88c.56-.25.55-.62.64-.93a381.67,381.67,0,0,0,11-50.36,110.87,110.87,0,0,0,1.3-23.66A31.65,31.65,0,0,0,66.3,7a7.46,7.46,0,0,0-1.92-2.93,6.77,6.77,0,0,0-1.81,3.41,60.19,60.19,0,0,0-2.36,10.77c-2,13.79-3.09,27.67-3.78,41.58-.31,6.41-.4,12.82-.55,19.24C55.78,83.63,55.86,88.2,55.86,92.88ZM168.69,70.06a22.35,22.35,0,0,0,4.25-3.78,49.48,49.48,0,0,0,11.43-23,38.14,38.14,0,0,0,0-17,11.62,11.62,0,0,0-1.45-3.58,1.06,1.06,0,0,0-1.72-.34,8.84,8.84,0,0,0-2.31,2.56,35.87,35.87,0,0,0-3.93,9,158.91,158.91,0,0,0-5.35,26.62A74.52,74.52,0,0,0,168.69,70.06Zm-73,50.07c.34-.1.43-.1.47-.14,3.67-4.61,5-10.21,6.69-15.69.13-.45-.09-.74-.45-1-1.43-1.16-2-1.12-2.78.56a42,42,0,0,0-4.15,14A4.29,4.29,0,0,0,95.7,120.13Z"/><path class="cls-2" d="M236.43,84.77c-.83,2.44-1.64,4.88-2.5,7.3a53.6,53.6,0,0,1-4.71,10,23.59,23.59,0,0,1-3.44,4.57,6.73,6.73,0,0,1-10,0,12.67,12.67,0,0,1-3.1-5.47,45.86,45.86,0,0,1-2-13.31c-.06-4.59.55-9.14.94-13.69.14-1.56.47-3.09-.21-4.64-.34-.75.21-1.29,1.12-1.17a6.49,6.49,0,0,1,4.29,2.57A16.06,16.06,0,0,1,220,78.79a60.41,60.41,0,0,1,.59,12.46c-.14,2.8-.31,5.59-.39,8.39a29.72,29.72,0,0,0,.19,3.89c.14,1.38.46,1.5,1.65.65a15.41,15.41,0,0,0,3.16-3.19,41.89,41.89,0,0,0,5.82-10.32,94.66,94.66,0,0,0,6.54-29.26c.16-2.68,1.11-3.36,3.7-2.72a7,7,0,0,1,4.52,3.88,25.52,25.52,0,0,1,2.5,8.19,107.27,107.27,0,0,1,1.12,12.65c.66,15,.91,30,.08,45.06-1,18-4.23,35.52-11,52.28-3.17,7.81-7,15.27-12.4,21.82a40.64,40.64,0,0,1-9.72,8.73c-11.82,7.36-25.71,4.25-33.3-7.45a29.55,29.55,0,0,1-4.28-10.35c-2.78-13.85,0-26.47,8.68-37.67,5.26-6.82,12.33-10.61,20.8-11.9,3.73-.57,7.44-1.12,11.2-.41a8,8,0,0,1,4.84,2.45c.26.3.6.63.34,1.07a1,1,0,0,1-1.28.36,3.53,3.53,0,0,1-1.28-.61,5.74,5.74,0,0,0-4.19-1.32c-13.56,0-24.33,5.07-31,17.34-5.64,10.43-7.11,21.42-3.74,32.89a26,26,0,0,0,6.68,11.36c5.41,5.31,12.24,6.38,19,3a26.76,26.76,0,0,0,7.84-6.18,55.54,55.54,0,0,0,9.88-16.66,119.93,119.93,0,0,0,6.94-26.06c2.14-13,2.72-26.22,2.94-39.41.2-12,.23-23.9.33-35.86,0-.34,0-.68,0-1Z"/><path class="cls-3" d="M314,120.28a3.76,3.76,0,0,0,1.76-1.53A39.09,39.09,0,0,0,323.3,105c.37-1.3,1-1.68,2.24-1.41s1.69.82,1.57,2.16a23.46,23.46,0,0,1-2,6.86,64.39,64.39,0,0,1-5.09,9.33c-2.62,4.19-6.72,4.33-10.38,2.69a12.53,12.53,0,0,1-4.86-4.28,23.75,23.75,0,0,1-3.78-9.2c-.72-.07-.69.58-1,.91a3.94,3.94,0,0,0-.29.54c-2.56,4.34-6.51,6.35-10.51,5.34-5.06-1.29-8.8-5.6-9-10.42a23.19,23.19,0,0,1,.6-6.1c.17-.72.34-1.43.57-2.44-1.41.57-2.59,1-3.74,1.52-.91.4-.61,1.3-.62,2A36.4,36.4,0,0,1,275,113.74a24.46,24.46,0,0,1-3.11,6.19c-4.82,6.86-13.38,5.29-17.15-.16a15.89,15.89,0,0,1-2.65-8.48,22.34,22.34,0,0,1,1.15-8.07c1.15-3.52,2.94-6.47,7-7.44a21.54,21.54,0,0,1-3.06-7.65,20.4,20.4,0,0,1,.19-8.73c1.46-5.41,6-7.19,10.81-4.26a12.75,12.75,0,0,1,4.71,5.54,43.88,43.88,0,0,1,3.72,12.93c.17,1.14.31,2.29.51,3.72,2.43-1.52,5-2.38,6.78-4.64,1.58-2.07,4.74-2.48,7.46-1a6.09,6.09,0,0,1,3.45,4.76,32.33,32.33,0,0,1,.07,6.74c-.2,2.45-.43,4.9-.62,7.35a2.36,2.36,0,0,0,.19,1.7,4.86,4.86,0,0,0,1.75-1.85c1.86-2.75,2.84-5.88,3.91-9,2.06-6,3.23-12.13,4.7-18.22a24.24,24.24,0,0,1,.73-2.56c.59-1.64,1.16-2,2.93-1.87a8.39,8.39,0,0,1,7.05,5.75,17.87,17.87,0,0,1,.69,5.87,79.37,79.37,0,0,1-1.25,11c-.63,4-1.32,7.95-1.68,12C313,116.53,313.12,118.07,314,120.28ZM272.9,96.37a47.78,47.78,0,0,0-2.48-13A16.35,16.35,0,0,0,267.47,78c-2.49-2.83-4.92-2.46-6,1.14a17.67,17.67,0,0,0,2.76,16.11,8.35,8.35,0,0,0,7.09,3.43c1.41,0,1.52-.14,1.56-1.5Zm-9.4,16.69a29.86,29.86,0,0,0,0,3.28c.11,1-.09,2.54,1,2.85.9.25,1.67-1,2.32-1.77,3.7-4.33,5.19-9.52,5.82-15,.1-.85-.37-1-1.1-1a15,15,0,0,1-4-.6c-1.67-.42-1.71-.44-2.32,1.26A31.73,31.73,0,0,0,263.5,113.06Z"/></g></g></svg>